<svg id="visual" viewBox="0 0 900 600" width="900" height="600" xmlns="http://www.w3.org/2000/svg" xmlns:xlink="http://www.w3.org/1999/xlink" version="1.1"><g stroke-width="1" stroke-linejoin="bevel"><path d="M487 300L387 290L385 360Z" fill="#112e42" stroke="#112e42"></path><path d="M385 360L462 429L487 300Z" fill="#277297" stroke="#277297"></path><path d="M387 290L325 324L385 360Z" fill="#1d4e6b" stroke="#1d4e6b"></path><path d="M385 360L428 538L462 429Z" fill="#112e42" stroke="#112e42"></path><path d="M487 300L427 198L387 290Z" fill="#00101c" stroke="#00101c"></path><path d="M270 163L238 276L325 324Z" fill="#15384f" stroke="#15384f"></path><path d="M325 324L298 362L385 360Z" fill="#205a7a" stroke="#205a7a"></path><path d="M487 300L507 167L427 198Z" fill="#19435d" stroke="#19435d"></path><path d="M428 538L525 485L462 429Z" fill="#15384f" stroke="#15384f"></path><path d="M462 429L616 370L487 300Z" fill="#112e42" stroke="#112e42"></path><path d="M487 300L619 261L507 167Z" fill="#19435d" stroke="#19435d"></path><path d="M525 485L616 370L462 429Z" fill="#19435d" stroke="#19435d"></path><path d="M616 370L619 261L487 300Z" fill="#112e42" stroke="#112e42"></path><path d="M270 163L325 324L387 290Z" fill="#19435d" stroke="#19435d"></path><path d="M325 324L238 276L298 362Z" fill="#1d4e6b" stroke="#1d4e6b"></path><path d="M507 167L410 105L427 198Z" fill="#112e42" stroke="#112e42"></path><path d="M427 198L270 163L387 290Z" fill="#19435d" stroke="#19435d"></path><path d="M616 174L515 138L507 167Z" fill="#00101c" stroke="#00101c"></path><path d="M289 530L428 538L385 360Z" fill="#00101c" stroke="#00101c"></path><path d="M525 600L570 499L525 485Z" fill="#297ea6" stroke="#297ea6"></path><path d="M525 485L570 499L616 370Z" fill="#19435d" stroke="#19435d"></path><path d="M515 138L410 105L507 167Z" fill="#081a28" stroke="#081a28"></path><path d="M410 105L270 163L427 198Z" fill="#15384f" stroke="#15384f"></path><path d="M619 261L616 174L507 167Z" fill="#00101c" stroke="#00101c"></path><path d="M270 163L224 205L238 276Z" fill="#1d4e6b" stroke="#1d4e6b"></path><path d="M673 418L674 279L616 370Z" fill="#0c2435" stroke="#0c2435"></path><path d="M616 370L674 279L619 261Z" fill="#205a7a" stroke="#205a7a"></path><path d="M619 261L723 197L616 174Z" fill="#19435d" stroke="#19435d"></path><path d="M195 465L289 530L298 362Z" fill="#246688" stroke="#246688"></path><path d="M298 362L289 530L385 360Z" fill="#1d4e6b" stroke="#1d4e6b"></path><path d="M570 499L673 418L616 370Z" fill="#112e42" stroke="#112e42"></path><path d="M662 133L586 110L616 174Z" fill="#19435d" stroke="#19435d"></path><path d="M616 174L586 110L515 138Z" fill="#246688" stroke="#246688"></path><path d="M515 0L373 0L410 105Z" fill="#205a7a" stroke="#205a7a"></path><path d="M410 105L293 101L270 163Z" fill="#19435d" stroke="#19435d"></path><path d="M270 163L232 112L224 205Z" fill="#0c2435" stroke="#0c2435"></path><path d="M373 0L293 101L410 105Z" fill="#00101c" stroke="#00101c"></path><path d="M86 362L170 390L83 260Z" fill="#1d4e6b" stroke="#1d4e6b"></path><path d="M238 276L170 390L298 362Z" fill="#19435d" stroke="#19435d"></path><path d="M170 390L195 465L298 362Z" fill="#00101c" stroke="#00101c"></path><path d="M262 600L375 600L289 530Z" fill="#15384f" stroke="#15384f"></path><path d="M289 530L375 600L428 538Z" fill="#277297" stroke="#277297"></path><path d="M428 538L525 600L525 485Z" fill="#297ea6" stroke="#297ea6"></path><path d="M375 600L525 600L428 538Z" fill="#081a28" stroke="#081a28"></path><path d="M570 499L669 524L673 418Z" fill="#19435d" stroke="#19435d"></path><path d="M293 101L232 112L270 163Z" fill="#1d4e6b" stroke="#1d4e6b"></path><path d="M224 205L114 209L238 276Z" fill="#246688" stroke="#246688"></path><path d="M723 197L662 133L616 174Z" fill="#205a7a" stroke="#205a7a"></path><path d="M525 600L570 600L570 499Z" fill="#00101c" stroke="#00101c"></path><path d="M570 600L669 524L570 499Z" fill="#081a28" stroke="#081a28"></path><path d="M674 279L723 197L619 261Z" fill="#19435d" stroke="#19435d"></path><path d="M801 333L723 197L674 279Z" fill="#00101c" stroke="#00101c"></path><path d="M801 333L674 279L673 418Z" fill="#1d4e6b" stroke="#1d4e6b"></path><path d="M234 600L262 600L289 530Z" fill="#277297" stroke="#277297"></path><path d="M515 0L410 105L515 138Z" fill="#112e42" stroke="#112e42"></path><path d="M293 101L280 0L232 112Z" fill="#15384f" stroke="#15384f"></path><path d="M515 0L515 138L586 110Z" fill="#112e42" stroke="#112e42"></path><path d="M582 0L515 0L586 110Z" fill="#081a28" stroke="#081a28"></path><path d="M195 465L234 600L289 530Z" fill="#112e42" stroke="#112e42"></path><path d="M129 600L234 600L195 465Z" fill="#15384f" stroke="#15384f"></path><path d="M232 112L114 209L224 205Z" fill="#246688" stroke="#246688"></path><path d="M170 390L123 474L195 465Z" fill="#297ea6" stroke="#297ea6"></path><path d="M86 362L123 474L170 390Z" fill="#112e42" stroke="#112e42"></path><path d="M83 260L170 390L238 276Z" fill="#081a28" stroke="#081a28"></path><path d="M114 209L83 260L238 276Z" fill="#15384f" stroke="#15384f"></path><path d="M699 0L582 0L586 110Z" fill="#277297" stroke="#277297"></path><path d="M699 0L586 110L662 133Z" fill="#246688" stroke="#246688"></path><path d="M373 0L280 0L293 101Z" fill="#277297" stroke="#277297"></path><path d="M232 112L68 93L114 209Z" fill="#00101c" stroke="#00101c"></path><path d="M830 396L801 333L673 418Z" fill="#246688" stroke="#246688"></path><path d="M801 333L777 191L723 197Z" fill="#1d4e6b" stroke="#1d4e6b"></path><path d="M723 197L766 104L662 133Z" fill="#205a7a" stroke="#205a7a"></path><path d="M727 600L789 483L669 524Z" fill="#277297" stroke="#277297"></path><path d="M669 524L789 483L673 418Z" fill="#205a7a" stroke="#205a7a"></path><path d="M900 74L766 104L777 191Z" fill="#205a7a" stroke="#205a7a"></path><path d="M777 191L766 104L723 197Z" fill="#00101c" stroke="#00101c"></path><path d="M570 600L727 600L669 524Z" fill="#277297" stroke="#277297"></path><path d="M789 483L830 396L673 418Z" fill="#246688" stroke="#246688"></path><path d="M801 333L900 225L777 191Z" fill="#1d4e6b" stroke="#1d4e6b"></path><path d="M123 474L129 600L195 465Z" fill="#246688" stroke="#246688"></path><path d="M0 501L129 600L123 474Z" fill="#00101c" stroke="#00101c"></path><path d="M766 104L699 0L662 133Z" fill="#19435d" stroke="#19435d"></path><path d="M280 0L166 0L232 112Z" fill="#15384f" stroke="#15384f"></path><path d="M0 193L0 322L83 260Z" fill="#19435d" stroke="#19435d"></path><path d="M0 193L83 260L114 209Z" fill="#081a28" stroke="#081a28"></path><path d="M83 260L0 322L86 362Z" fill="#1d4e6b" stroke="#1d4e6b"></path><path d="M86 362L0 414L123 474Z" fill="#19435d" stroke="#19435d"></path><path d="M166 0L68 93L232 112Z" fill="#081a28" stroke="#081a28"></path><path d="M0 322L0 414L86 362Z" fill="#00101c" stroke="#00101c"></path><path d="M0 137L0 193L114 209Z" fill="#00101c" stroke="#00101c"></path><path d="M900 386L900 315L830 396Z" fill="#297ea6" stroke="#297ea6"></path><path d="M830 396L900 315L801 333Z" fill="#081a28" stroke="#081a28"></path><path d="M900 386L830 396L900 512Z" fill="#112e42" stroke="#112e42"></path><path d="M0 414L0 501L123 474Z" fill="#112e42" stroke="#112e42"></path><path d="M900 512L830 396L789 483Z" fill="#1d4e6b" stroke="#1d4e6b"></path><path d="M0 0L0 137L68 93Z" fill="#277297" stroke="#277297"></path><path d="M68 93L0 137L114 209Z" fill="#277297" stroke="#277297"></path><path d="M900 74L780 0L766 104Z" fill="#19435d" stroke="#19435d"></path><path d="M766 104L780 0L699 0Z" fill="#205a7a" stroke="#205a7a"></path><path d="M727 600L824 600L789 483Z" fill="#277297" stroke="#277297"></path><path d="M900 315L900 225L801 333Z" fill="#297ea6" stroke="#297ea6"></path><path d="M166 0L69 0L68 93Z" fill="#15384f" stroke="#15384f"></path><path d="M824 600L900 512L789 483Z" fill="#246688" stroke="#246688"></path><path d="M0 501L0 600L129 600Z" fill="#15384f" stroke="#15384f"></path><path d="M900 225L900 74L777 191Z" fill="#112e42" stroke="#112e42"></path><path d="M824 600L900 600L900 512Z" fill="#246688" stroke="#246688"></path><path d="M69 0L0 0L68 93Z" fill="#081a28" stroke="#081a28"></path><path d="M900 74L900 0L780 0Z" fill="#00101c" stroke="#00101c"></path></g></svg>